<svg width="140" height="36" viewBox="0 0 572 164" fill="none" xmlns="http://www.w3.org/2000/svg">
<g clip-path="url(#clip0_2186_25975)">
<path d="M250.253 36.3919H242.691V0H273.176V36.3919H265.85V6.61671H250.253V36.3919V36.3919Z" fill="#363636"/>
<path d="M293.498 37.1008C289.481 37.1008 285.937 35.9193 283.337 33.3198C280.501 30.7204 279.083 27.4121 279.083 23.3948C279.083 19.6138 280.265 16.3054 282.864 13.706C285.464 11.1066 288.536 9.68872 292.553 9.68872C296.334 9.68872 299.406 11.1066 301.533 13.706C303.896 16.3054 304.841 19.6138 304.841 23.3948V25.2853H286.173C286.645 26.9394 287.591 28.3573 289.009 29.3026C290.663 30.2478 292.553 30.7204 294.916 30.7204C297.752 30.7204 300.588 30.0115 303.187 28.3573V34.2651C301.06 36.1556 297.752 37.1008 293.498 37.1008ZM286.409 20.7953H297.752C297.752 19.3775 297.043 17.9596 296.098 17.0144C295.153 16.0691 293.735 15.5965 292.317 15.5965C290.663 15.5965 289.245 16.0691 288.3 17.0144C287.118 17.9596 286.645 19.1412 286.409 20.7953Z" fill="#363636"/>
<path d="M326.346 9.68872C329.891 9.68872 332.726 11.1066 335.09 13.706C337.453 16.3054 338.634 19.6138 338.634 23.3948C338.634 27.1758 337.453 30.4841 335.09 33.0835C332.726 35.683 329.891 37.1008 326.346 37.1008C322.801 37.1008 319.966 35.9193 317.839 33.3198V46.7896H310.513V10.3977H317.839V13.4697C319.966 11.1066 322.801 9.68872 326.346 9.68872ZM324.456 16.0691C323.038 16.0691 321.856 16.5417 320.675 17.2507C319.493 17.9596 318.548 18.9049 318.075 20.0864V26.9394C318.784 28.121 319.493 29.0662 320.675 29.7752C321.856 30.4841 323.038 30.7204 324.456 30.7204C326.582 30.7204 328.237 30.0115 329.418 28.5936C330.836 27.1758 331.309 25.5216 331.309 23.3948C331.309 21.268 330.6 19.6138 329.418 18.1959C328.237 16.7781 326.346 16.0691 324.456 16.0691Z" fill="#363636"/>
<path d="M356.83 37.1008C352.813 37.1008 349.268 35.9193 346.669 33.3198C343.833 30.7204 342.415 27.4121 342.415 23.3948C342.415 19.6138 343.597 16.3054 346.196 13.706C348.795 11.1066 351.868 9.68872 355.885 9.68872C359.666 9.68872 362.738 11.1066 364.865 13.706C367.228 16.3054 368.173 19.6138 368.173 23.3948V25.2853H349.504C349.977 26.9394 350.922 28.3573 352.34 29.3026C353.994 30.2478 355.885 30.7204 358.248 30.7204C361.084 30.7204 363.919 30.0115 366.519 28.3573V34.2651C364.392 36.1556 361.084 37.1008 356.83 37.1008ZM349.504 20.7953H360.847C360.847 19.3775 360.138 17.9596 359.193 17.0144C358.248 16.0691 356.83 15.5965 355.412 15.5965C353.758 15.5965 352.34 16.0691 351.395 17.0144C350.45 17.9596 349.741 19.1412 349.504 20.7953Z" fill="#363636"/>
<path d="M378.334 43.0087H371.245V30.2479H374.553C376.444 27.1758 377.626 22.2133 377.626 15.5966V10.634H399.366V30.4842H403.62V43.245H397.003V36.6283H378.334V43.0087ZM382.115 30.2479H392.513V16.5418H384.479C384.479 21.977 383.533 26.4669 382.115 30.2479Z" fill="#363636"/>
<path d="M414.49 23.3948C414.49 25.5216 415.199 27.1758 416.617 28.5936C418.034 30.0115 419.689 30.7204 421.815 30.7204C423.942 30.7204 425.596 30.0115 427.014 28.5936C428.432 27.1758 429.141 25.5216 429.141 23.3948C429.141 21.268 428.432 19.6138 427.014 18.1959C425.596 16.7781 423.942 16.0691 421.815 16.0691C419.689 16.0691 418.034 16.7781 416.617 18.1959C415.199 19.6138 414.49 21.268 414.49 23.3948ZM407.164 23.3948C407.164 19.6138 408.582 16.3054 411.181 13.706C413.781 11.1066 417.325 9.68872 421.579 9.68872C425.833 9.68872 429.141 11.1066 431.977 13.706C434.576 16.3054 435.994 19.6138 435.994 23.3948C435.994 27.1758 434.576 30.4841 431.977 33.0835C429.377 35.683 425.833 37.1008 421.579 37.1008C417.325 37.1008 414.017 35.683 411.181 33.0835C408.582 30.4841 407.164 27.1758 407.164 23.3948Z" fill="#363636"/>
<path d="M456.789 36.3919H441.429V10.3977H456.081C458.68 10.3977 460.807 11.1066 462.225 12.2882C463.642 13.4698 464.351 15.1239 464.351 17.0144C464.351 19.6138 463.406 21.5043 461.279 22.4496C464.588 23.6311 466.242 25.7579 466.242 29.0663C466.242 31.1931 465.297 33.0836 463.642 34.2651C461.988 35.683 459.861 36.3919 456.789 36.3919ZM448.755 25.5216V31.4294H454.899C457.498 31.4294 458.68 30.4842 458.68 28.5937C458.68 26.7032 457.498 25.7579 454.899 25.7579H448.755V25.5216ZM448.755 15.5966V20.7954H453.954C456.317 20.7954 457.498 19.8502 457.498 18.196C457.498 16.5418 456.081 15.5966 453.717 15.5966H448.755Z" fill="#363636"/>
<path d="M505.469 36.3919H498.144V10.3977H505.469V36.3919ZM484.91 36.3919H471.913V10.3977H479.239V17.9597H484.438C487.746 17.9597 490.345 18.9049 492.236 20.5591C494.126 22.2133 495.072 24.3401 495.072 27.1758C495.072 29.7752 494.126 31.902 492.472 33.7925C490.582 35.4467 488.219 36.3919 484.91 36.3919ZM479.239 23.3948V30.7205H483.492C484.91 30.7205 486.092 30.4842 486.801 29.7752C487.51 29.0663 487.982 28.3574 487.982 27.1758C487.982 25.9942 487.51 25.049 486.801 24.5764C486.092 23.8674 484.91 23.6311 483.492 23.6311H479.239V23.3948Z" fill="#363636"/>
<path d="M525.557 37.1008C521.539 37.1008 517.995 35.9193 515.395 33.3198C512.559 30.7204 511.142 27.4121 511.142 23.3948C511.142 19.6138 512.323 16.3054 514.923 13.706C517.522 11.1066 520.594 9.68872 524.611 9.68872C528.392 9.68872 531.464 11.1066 533.591 13.706C535.954 16.3054 536.899 19.6138 536.899 23.3948V25.2853H518.231C518.704 26.9394 519.649 28.3573 521.067 29.3026C522.721 30.2478 524.611 30.7204 526.974 30.7204C529.81 30.7204 532.646 30.0115 535.245 28.3573V34.2651C533.119 36.1556 529.81 37.1008 525.557 37.1008ZM518.231 20.7953H529.574C529.574 19.3775 528.865 17.9596 527.92 17.0144C526.974 16.0691 525.557 15.5965 524.139 15.5965C522.485 15.5965 521.067 16.0691 520.121 17.0144C519.176 17.9596 518.467 19.1412 518.231 20.7953Z" fill="#363636"/>
<path d="M249.072 97.8329H242.219V71.8386H249.545V87.1989L261.36 71.8386H268.213V97.8329H260.888V82.4726L249.072 97.8329Z" fill="#363636"/>
<path d="M282.628 97.8329H275.303V71.8386H282.628V81.5274H293.262V71.8386H300.588V97.8329H293.262V87.6715H282.628V97.8329Z" fill="#363636"/>
<path d="M313.585 97.8329H304.841L315.948 83.8905L306.023 71.8386H314.294L322.092 81.5274V71.8386H329.418V81.5274L337.216 71.8386H345.487L335.562 83.8905L346.905 97.8329H337.925L329.418 86.7262V97.8329H322.092V86.7262L313.585 97.8329Z" fill="#363636"/>
<path d="M361.556 98.5417C357.539 98.5417 353.994 97.3602 351.395 94.7608C348.559 92.1613 347.141 88.853 347.141 84.8357C347.141 81.0547 348.323 77.7463 350.922 75.1469C353.522 72.5475 356.594 71.1296 360.611 71.1296C364.392 71.1296 367.464 72.5475 369.591 75.1469C371.954 77.7463 372.899 81.0547 372.899 84.8357V86.7262H354.467C354.939 88.3804 355.885 89.7982 357.302 90.7435C358.957 91.6887 360.847 92.1613 363.21 92.1613C366.046 92.1613 368.882 91.4524 371.481 89.7982V95.706C369.118 97.5965 365.81 98.5417 361.556 98.5417ZM354.467 82.2363H365.81C365.81 80.8184 365.101 79.4005 364.156 78.4553C363.21 77.51 361.792 77.0374 360.375 77.0374C358.72 77.0374 357.303 77.51 356.357 78.4553C355.176 79.4005 354.703 80.5821 354.467 82.2363Z" fill="#363636"/>
<path d="M385.896 97.8329H378.571V71.8386H385.896V81.5274H396.53V71.8386H403.856V97.8329H396.53V87.6715H385.896V97.8329Z" fill="#363636"/>
<path d="M423.942 98.5417C419.925 98.5417 416.38 97.3602 413.781 94.7608C410.945 92.1613 409.527 88.853 409.527 84.8357C409.527 81.0547 410.709 77.7463 413.308 75.1469C415.908 72.5475 418.98 71.1296 422.997 71.1296C426.778 71.1296 429.85 72.5475 431.977 75.1469C434.34 77.7463 435.285 81.0547 435.285 84.8357V86.7262H416.617C417.089 88.3804 418.035 89.7982 419.452 90.7435C421.107 91.6887 422.997 92.1613 425.36 92.1613C428.196 92.1613 431.032 91.4524 433.631 89.7982V95.706C431.504 97.5965 428.196 98.5417 423.942 98.5417ZM416.853 82.2363H428.196C428.196 80.8184 427.487 79.4005 426.542 78.4553C425.596 77.51 424.179 77.0374 422.761 77.0374C421.107 77.0374 419.689 77.51 418.743 78.4553C417.562 79.4005 416.853 80.5821 416.853 82.2363Z" fill="#363636"/>
<path d="M456.789 71.1296C460.334 71.1296 463.17 72.5475 465.533 75.1469C467.896 77.7464 469.078 81.0547 469.078 84.8357C469.078 88.6167 467.896 91.925 465.533 94.5244C463.17 97.1239 460.334 98.3054 456.789 98.3054C453.245 98.3054 450.409 97.1239 448.282 94.5244V107.994H440.957V71.8386H448.282V74.9106C450.173 72.5475 453.008 71.1296 456.789 71.1296ZM454.663 77.51C453.245 77.51 452.063 77.9827 450.882 78.6916C449.7 79.4005 448.755 80.3458 448.282 81.5273V88.3804C448.991 89.5619 449.7 90.5072 450.882 91.2161C452.063 91.925 453.245 92.1613 454.663 92.1613C456.789 92.1613 458.444 91.4524 459.625 90.0345C461.043 88.6167 461.516 86.9625 461.516 84.8357C461.516 82.7089 460.807 81.0547 459.625 79.6368C458.444 78.219 456.789 77.51 454.663 77.51Z" fill="#363636"/>
<path d="M481.838 97.8329H474.513V71.8386H481.838V81.5274H492.472V71.8386H499.798V97.8329H492.472V87.6715H481.838V97.8329Z" fill="#363636"/>
<path d="M540.68 97.8329H533.355V71.8386H540.68V97.8329ZM519.885 97.8329H506.888V71.8386H514.213V79.4006H519.412C522.721 79.4006 525.32 80.3458 527.21 82C529.101 83.6542 530.046 85.781 530.046 88.6167C530.046 91.2161 529.101 93.3429 527.447 95.2334C525.793 96.8876 523.193 97.8329 519.885 97.8329ZM514.213 84.8357V92.1614H518.467C519.885 92.1614 521.066 91.9251 521.775 91.2161C522.484 90.5072 522.957 89.7983 522.957 88.6167C522.957 87.4352 522.484 86.4899 521.775 86.0173C521.066 85.3084 519.885 85.0721 518.467 85.0721H514.213V84.8357Z" fill="#363636"/>
<path d="M560.53 98.5417C556.513 98.5417 552.968 97.3602 550.369 94.7608C547.769 92.1613 546.115 88.853 546.115 84.8357C546.115 81.0547 547.297 77.7463 549.896 75.1469C552.496 72.5475 555.568 71.1296 559.585 71.1296C563.366 71.1296 566.438 72.5475 568.565 75.1469C570.928 77.7463 571.873 81.0547 571.873 84.8357V86.7262H553.205C553.677 88.3804 554.622 89.7982 556.04 90.7435C557.694 91.6887 559.585 92.1613 561.948 92.1613C564.784 92.1613 567.62 91.4524 570.219 89.7982V95.706C568.092 97.5965 564.784 98.5417 560.53 98.5417ZM553.441 82.2363H564.784C564.784 80.8184 564.075 79.4005 563.13 78.4553C562.184 77.51 560.767 77.0374 559.349 77.0374C557.694 77.0374 556.277 77.51 555.331 78.4553C554.15 79.4005 553.441 80.5821 553.441 82.2363Z" fill="#363636"/>
<path d="M279.793 159.274H242.219V133.28H249.545V153.13H257.343V133.28H264.432V153.13H272.467V133.28H279.556V159.274H279.793Z" fill="#363636"/>
<path d="M294.207 159.274H286.882V133.28H294.207V142.732L303.187 133.28H312.167L300.824 145.095L313.821 159.274H304.369L294.207 148.167V159.274V159.274Z" fill="#363636"/>
<path d="M321.62 146.277C321.62 148.403 322.329 150.058 323.746 151.475C325.164 152.893 326.818 153.602 328.945 153.602C331.072 153.602 332.726 152.893 334.144 151.475C335.562 150.058 336.271 148.403 336.271 146.277C336.271 144.15 335.562 142.496 334.144 141.078C332.726 139.66 331.072 138.951 328.945 138.951C326.818 138.951 325.164 139.66 323.746 141.078C322.329 142.496 321.62 144.15 321.62 146.277ZM314.53 146.277C314.53 142.496 315.948 139.187 318.548 136.588C321.147 133.988 324.692 132.571 328.945 132.571C333.199 132.571 336.507 133.988 339.343 136.588C341.942 139.187 343.36 142.496 343.36 146.277C343.36 150.058 341.942 153.366 339.343 155.965C336.744 158.565 333.199 159.983 328.945 159.983C324.692 159.983 321.383 158.565 318.548 155.965C315.712 153.366 314.53 150.058 314.53 146.277Z" fill="#363636"/>
<path d="M366.282 139.424H358.248V142.968C358.011 146.749 357.775 149.821 357.066 152.184C356.357 154.548 355.412 156.202 353.994 157.62C352.576 158.801 350.686 159.51 348.323 159.51C347.141 159.51 346.196 159.274 345.487 159.037V153.13C345.959 153.366 346.432 153.366 346.905 153.366C348.559 153.366 349.74 152.184 350.213 150.058C350.686 148.167 350.922 145.095 351.158 141.078L351.395 133.516H373.844V159.51H366.282V139.424Z" fill="#363636"/>
<path d="M414.49 159.274H407.164V133.28H414.49V159.274ZM393.694 159.274H380.697V133.28H388.023V140.841H393.222C396.53 140.841 399.13 141.787 401.02 143.441C402.91 145.095 403.856 147.222 403.856 150.058C403.856 152.657 402.911 154.784 401.256 156.674C399.602 158.329 397.003 159.274 393.694 159.274ZM388.023 146.277V153.602H392.276C393.694 153.602 394.876 153.366 395.585 152.657C396.294 151.948 396.766 151.239 396.766 150.058C396.766 148.876 396.294 147.931 395.585 147.458C394.876 146.749 393.694 146.513 392.276 146.513H388.023V146.277Z" fill="#363636"/>
<path d="M46.0808 164C51.9538 164 56.7148 159.239 56.7148 153.366C56.7148 147.493 51.9538 142.732 46.0808 142.732C40.2078 142.732 35.4468 147.493 35.4468 153.366C35.4468 159.239 40.2078 164 46.0808 164Z" fill="#4547BB" fill-opacity="0.4"/>
<path d="M81.5276 22.2132C87.4006 22.2132 92.1616 17.4522 92.1616 11.5792C92.1616 5.7062 87.4006 0.94519 81.5276 0.94519C75.6546 0.94519 70.8936 5.7062 70.8936 11.5792C70.8936 17.4522 75.6546 22.2132 81.5276 22.2132Z" fill="#4547BB" fill-opacity="0.4"/>
<path d="M81.5276 57.6599C87.4006 57.6599 92.1616 52.8989 92.1616 47.0259C92.1616 41.1529 87.4006 36.3918 81.5276 36.3918C75.6546 36.3918 70.8936 41.1529 70.8936 47.0259C70.8936 52.8989 75.6546 57.6599 81.5276 57.6599Z" fill="#4547BB" fill-opacity="0.4"/>
<path d="M81.5276 128.553C87.4006 128.553 92.1616 123.792 92.1616 117.919C92.1616 112.046 87.4006 107.285 81.5276 107.285C75.6546 107.285 70.8936 112.046 70.8936 117.919C70.8936 123.792 75.6546 128.553 81.5276 128.553Z" fill="#4547BB" fill-opacity="0.4"/>
<path d="M81.5276 164C87.4006 164 92.1616 159.239 92.1616 153.366C92.1616 147.493 87.4006 142.732 81.5276 142.732C75.6546 142.732 70.8936 147.493 70.8936 153.366C70.8936 159.239 75.6546 164 81.5276 164Z" fill="#4547BB" fill-opacity="0.4"/>
<path d="M116.974 22.2132C122.847 22.2132 127.608 17.4522 127.608 11.5792C127.608 5.7062 122.847 0.94519 116.974 0.94519C111.101 0.94519 106.34 5.7062 106.34 11.5792C106.34 17.4522 111.101 22.2132 116.974 22.2132Z" fill="#4547BB" fill-opacity="0.4"/>
<path d="M10.634 22.2132C16.507 22.2132 21.268 17.4522 21.268 11.5792C21.268 5.7062 16.507 0.94519 10.634 0.94519C4.76101 0.94519 0 5.7062 0 11.5792C0 17.4522 4.76101 22.2132 10.634 22.2132Z" fill="#4547BB"/>
<path d="M10.634 57.6599C16.507 57.6599 21.268 52.8989 21.268 47.0259C21.268 41.1529 16.507 36.3918 10.634 36.3918C4.76101 36.3918 0 41.1529 0 47.0259C0 52.8989 4.76101 57.6599 10.634 57.6599Z" fill="#4547BB"/>
<path d="M10.634 93.1065C16.507 93.1065 21.268 88.3455 21.268 82.4725C21.268 76.5995 16.507 71.8385 10.634 71.8385C4.76101 71.8385 0 76.5995 0 82.4725C0 88.3455 4.76101 93.1065 10.634 93.1065Z" fill="#4547BB"/>
<path d="M10.634 128.553C16.507 128.553 21.268 123.792 21.268 117.919C21.268 112.046 16.507 107.285 10.634 107.285C4.76101 107.285 0 112.046 0 117.919C0 123.792 4.76101 128.553 10.634 128.553Z" fill="#4547BB"/>
<path d="M10.634 164C16.507 164 21.268 159.239 21.268 153.366C21.268 147.493 16.507 142.732 10.634 142.732C4.76101 142.732 0 147.493 0 153.366C0 159.239 4.76101 164 10.634 164Z" fill="#4547BB"/>
<path d="M46.0808 22.2132C51.9538 22.2132 56.7148 17.4522 56.7148 11.5792C56.7148 5.7062 51.9538 0.94519 46.0808 0.94519C40.2078 0.94519 35.4468 5.7062 35.4468 11.5792C35.4468 17.4522 40.2078 22.2132 46.0808 22.2132Z" fill="#4547BB"/>
<path d="M46.0808 57.6599C51.9538 57.6599 56.7148 52.8989 56.7148 47.0259C56.7148 41.1529 51.9538 36.3918 46.0808 36.3918C40.2078 36.3918 35.4468 41.1529 35.4468 47.0259C35.4468 52.8989 40.2078 57.6599 46.0808 57.6599Z" fill="#4547BB"/>
<path d="M46.0808 93.1065C51.9538 93.1065 56.7148 88.3455 56.7148 82.4725C56.7148 76.5995 51.9538 71.8385 46.0808 71.8385C40.2078 71.8385 35.4468 76.5995 35.4468 82.4725C35.4468 88.3455 40.2078 93.1065 46.0808 93.1065Z" fill="#4547BB"/>
<path d="M46.0808 128.553C51.9538 128.553 56.7148 123.792 56.7148 117.919C56.7148 112.046 51.9538 107.285 46.0808 107.285C40.2078 107.285 35.4468 112.046 35.4468 117.919C35.4468 123.792 40.2078 128.553 46.0808 128.553Z" fill="#4547BB"/>
<path d="M81.5276 93.1065C87.4006 93.1065 92.1616 88.3455 92.1616 82.4725C92.1616 76.5995 87.4006 71.8385 81.5276 71.8385C75.6546 71.8385 70.8936 76.5995 70.8936 82.4725C70.8936 88.3455 75.6546 93.1065 81.5276 93.1065Z" fill="#4547BB"/>
<path d="M116.974 57.6599C122.847 57.6599 127.608 52.8989 127.608 47.0259C127.608 41.1529 122.847 36.3918 116.974 36.3918C111.101 36.3918 106.34 41.1529 106.34 47.0259C106.34 52.8989 111.101 57.6599 116.974 57.6599Z" fill="#4547BB"/>
<path d="M116.974 93.1065C122.847 93.1065 127.608 88.3455 127.608 82.4725C127.608 76.5995 122.847 71.8385 116.974 71.8385C111.101 71.8385 106.34 76.5995 106.34 82.4725C106.34 88.3455 111.101 93.1065 116.974 93.1065Z" fill="#4547BB"/>
<path d="M116.974 128.553C122.847 128.553 127.608 123.792 127.608 117.919C127.608 112.046 122.847 107.285 116.974 107.285C111.101 107.285 106.34 112.046 106.34 117.919C106.34 123.792 111.101 128.553 116.974 128.553Z" fill="#4547BB"/>
<path d="M116.974 164C122.847 164 127.608 159.239 127.608 153.366C127.608 147.493 122.847 142.732 116.974 142.732C111.101 142.732 106.34 147.493 106.34 153.366C106.34 159.239 111.101 164 116.974 164Z" fill="#4547BB"/>
<path d="M152.421 22.2132C158.294 22.2132 163.055 17.4522 163.055 11.5792C163.055 5.7062 158.294 0.94519 152.421 0.94519C146.548 0.94519 141.787 5.7062 141.787 11.5792C141.787 17.4522 146.548 22.2132 152.421 22.2132Z" fill="#4547BB"/>
<path d="M152.421 57.6599C158.294 57.6599 163.055 52.8989 163.055 47.0259C163.055 41.1529 158.294 36.3918 152.421 36.3918C146.548 36.3918 141.787 41.1529 141.787 47.0259C141.787 52.8989 146.548 57.6599 152.421 57.6599Z" fill="#4547BB"/>
<path d="M152.421 93.1065C158.294 93.1065 163.055 88.3455 163.055 82.4725C163.055 76.5995 158.294 71.8385 152.421 71.8385C146.548 71.8385 141.787 76.5995 141.787 82.4725C141.787 88.3455 146.548 93.1065 152.421 93.1065Z" fill="#4547BB"/>
<path d="M152.421 128.553C158.294 128.553 163.055 123.792 163.055 117.919C163.055 112.046 158.294 107.285 152.421 107.285C146.548 107.285 141.787 112.046 141.787 117.919C141.787 123.792 146.548 128.553 152.421 128.553Z" fill="#4547BB"/>
<path d="M152.421 164C158.294 164 163.055 159.239 163.055 153.366C163.055 147.493 158.294 142.732 152.421 142.732C146.548 142.732 141.787 147.493 141.787 153.366C141.787 159.239 146.548 164 152.421 164Z" fill="#4547BB"/>
</g>
<defs>
<clipPath id="clip0_2186_25975">
<rect width="571.873" height="164" fill="white"/>
</clipPath>
</defs>
</svg>
