<svg width="20" height="20" viewBox="0 0 20 20" fill="none"><path opacity="0.3" d="M10.0013 4.42065V17.779C9.85964 17.779 9.70963 17.754 9.59297 17.6873L9.55963 17.6706C7.95964 16.7956 5.16797 15.879 3.35964 15.6373L3.11797 15.604C2.31797 15.504 1.66797 14.754 1.66797 13.954V3.88732C1.66797 2.89565 2.4763 2.14565 3.46797 2.22898C5.21797 2.37065 7.86797 3.25398 9.3513 4.17898L9.55963 4.30398C9.68464 4.37898 9.84297 4.42065 10.0013 4.42065Z" fill="#0071CE"></path><path d="M18.3333 3.89128V13.9496C18.3333 14.7496 17.6833 15.4996 16.8833 15.5996L16.6083 15.633C14.7917 15.8746 11.9917 16.7996 10.3917 17.683C10.2833 17.7496 10.15 17.7746 10 17.7746V4.41628C10.1583 4.41628 10.3167 4.37462 10.4417 4.29962L10.5833 4.20795C12.0667 3.27462 14.725 2.38295 16.475 2.23295H16.525C17.5167 2.14962 18.3333 2.89128 18.3333 3.89128Z" fill="#0071CE"></path><path d="M6.45703 7.69922H4.58203C4.24036 7.69922 3.95703 7.41589 3.95703 7.07422C3.95703 6.73255 4.24036 6.44922 4.58203 6.44922H6.45703C6.7987 6.44922 7.08203 6.73255 7.08203 7.07422C7.08203 7.41589 6.7987 7.69922 6.45703 7.69922Z" fill="#0071CE"></path><path d="M7.08203 10.1992H4.58203C4.24036 10.1992 3.95703 9.91589 3.95703 9.57422C3.95703 9.23255 4.24036 8.94922 4.58203 8.94922H7.08203C7.4237 8.94922 7.70703 9.23255 7.70703 9.57422C7.70703 9.91589 7.4237 10.1992 7.08203 10.1992Z" fill="#0071CE"></path></svg>