<svg width="20" height="20" viewBox="0 0 20 20" fill="none"><path opacity="0.3" d="M17.5335 5.99102L10.0001 10.3493L2.4668 5.99102C2.80013 5.37435 3.28346 4.83268 3.82513 4.53268L8.27513 2.06602C9.22513 1.53268 10.7751 1.53268 11.7251 2.06602L16.1751 4.53268C16.7168 4.83268 17.2001 5.37435 17.5335 5.99102Z" fill="#0071CE"></path><path opacity="0.6" d="M10.0005 10.3505V18.3339C9.37552 18.3339 8.75052 18.2005 8.27552 17.9339L3.82552 15.4672C2.81719 14.9089 1.99219 13.5089 1.99219 12.3589V7.64219C1.99219 7.10885 2.17552 6.52552 2.46719 5.99219L10.0005 10.3505Z" fill="#0071CE"></path><path d="M18.0093 7.64219V12.3589C18.0093 13.5089 17.1843 14.9089 16.176 15.4672L11.726 17.9339C11.251 18.2005 10.626 18.3339 10.001 18.3339V10.3505L17.5343 5.99219C17.826 6.52552 18.0093 7.10885 18.0093 7.64219Z" fill="#0071CE"></path></svg>