<svg width="20" height="20" viewBox="0 0 20 20" fill="none"><path d="M18.3337 18.334H1.66699C1.32533 18.334 1.04199 18.0507 1.04199 17.709C1.04199 17.3673 1.32533 17.084 1.66699 17.084H18.3337C18.6753 17.084 18.9587 17.3673 18.9587 17.709C18.9587 18.0507 18.6753 18.334 18.3337 18.334Z" fill="#0071CE"></path><path d="M8.125 3.33268V18.3327H11.875V3.33268C11.875 2.41602 11.5 1.66602 10.375 1.66602H9.625C8.5 1.66602 8.125 2.41602 8.125 3.33268Z" fill="#0071CE"></path><path opacity="0.3" d="M2.5 8.33268V18.3327H5.83333V8.33268C5.83333 7.41602 5.5 6.66602 4.5 6.66602H3.83333C2.83333 6.66602 2.5 7.41602 2.5 8.33268Z" fill="#0071CE"></path><path opacity="0.6" d="M14.167 5.71549V18.3341H17.5003V5.71549C17.5003 4.79883 17.167 4.04883 16.167 4.04883H15.5003C14.5003 4.04883 14.167 4.79883 14.167 5.71549Z" fill="#0071CE"></path></svg>