<svg width="20" height="20" viewBox="0 0 20 20" fill="none"><path opacity="0.3" fill-rule="evenodd" clip-rule="evenodd" d="M13.9032 3.14146C11.3303 2.85389 8.67078 2.85389 6.09782 3.14146C5.28726 3.23205 4.55978 3.61442 4.02974 4.18333C3.54592 4.69651 3.22363 5.36344 3.14146 6.09872C2.85389 8.67168 2.85389 11.3312 3.14146 13.9041C3.22927 14.6898 3.59122 15.3974 4.13145 15.9228C4.65108 16.4339 5.33794 16.7753 6.09782 16.8602C8.67078 17.1478 11.3303 17.1478 13.9032 16.8602C14.6376 16.7781 15.3039 16.4565 15.8168 15.9736C16.3865 15.4435 16.7695 14.7154 16.8602 13.9041C17.1478 11.3312 17.1478 8.67168 16.8602 6.09872C16.7752 5.33778 16.433 4.65006 15.9207 4.13018C15.3954 3.59065 14.6883 3.2292 13.9032 3.14146Z" fill="#0071CE"></path><path d="M6.71387 9.14286L9.57101 12L17.1422 4.28516" stroke="#0071CE" stroke-width="1.5" stroke-linecap="round"></path></svg>