<svg width="20" height="20" viewBox="0 0 20 20" fill="none"><path opacity="0.3" d="M18.0505 8.69944L17.2338 12.1828C16.5338 15.1911 15.1505 16.4078 12.5505 16.1578C12.1338 16.1244 11.6838 16.0494 11.2005 15.9328L9.80048 15.5994C6.32548 14.7744 5.25048 13.0578 6.06714 9.57444L6.88381 6.08277C7.05048 5.37444 7.25048 4.75777 7.50048 4.24944C8.47548 2.23277 10.1338 1.6911 12.9171 2.34944L14.3088 2.67444C17.8005 3.4911 18.8671 5.2161 18.0505 8.69944Z" fill="#0071CE"></path><path d="M12.5503 16.1583C12.0336 16.5083 11.3836 16.8 10.592 17.0583L9.27528 17.4917C5.96695 18.5583 4.22528 17.6667 3.15028 14.3583L2.08362 11.0667C1.01695 7.75833 1.90028 6.00833 5.20862 4.94167L6.52528 4.50833C6.86695 4.4 7.19195 4.30833 7.50028 4.25C7.25028 4.75833 7.05028 5.375 6.88362 6.08333L6.06695 9.575C5.25028 13.0583 6.32528 14.775 9.80028 15.6L11.2003 15.9333C11.6836 16.05 12.1336 16.125 12.5503 16.1583Z" fill="#0071CE"></path><path d="M14.5751 8.75912C14.5251 8.75912 14.4751 8.75079 14.4168 8.74246L10.3751 7.71746C10.0418 7.63412 9.84181 7.29246 9.92514 6.95912C10.0085 6.62579 10.3501 6.42579 10.6835 6.50912L14.7251 7.53412C15.0585 7.61746 15.2585 7.95912 15.1751 8.29246C15.1085 8.56746 14.8501 8.75912 14.5751 8.75912Z" fill="#0071CE"></path><path d="M12.1333 11.5754C12.0833 11.5754 12.0333 11.5671 11.9749 11.5587L9.54994 10.9421C9.21661 10.8587 9.01661 10.5171 9.09994 10.1837C9.18328 9.8504 9.52494 9.6504 9.85828 9.73373L12.2833 10.3504C12.6166 10.4337 12.8166 10.7754 12.7333 11.1087C12.6666 11.3921 12.4166 11.5754 12.1333 11.5754Z" fill="#0071CE"></path></svg>