<svg width="20" height="20" viewBox="0 0 20 20" fill="none" xmlns="http://www.w3.org/2000/svg">
<path opacity="0.4" d="M14.6084 6.47496C14.55 6.46663 14.4917 6.46663 14.4334 6.47496C13.1417 6.4333 12.1167 5.37496 12.1167 4.07496C12.1167 2.74996 13.1917 1.66663 14.525 1.66663C15.85 1.66663 16.9334 2.74163 16.9334 4.07496C16.925 5.37496 15.9 6.4333 14.6084 6.47496Z" fill="#0071CE"/>
<path opacity="0.4" d="M17.3252 12.25C16.3918 12.875 15.0835 13.1083 13.8752 12.95C14.1918 12.2666 14.3585 11.5083 14.3668 10.7083C14.3668 9.87497 14.1835 9.0833 13.8335 8.39164C15.0668 8.22497 16.3752 8.45829 17.3168 9.08329C18.6335 9.94996 18.6335 11.375 17.3252 12.25Z" fill="#0071CE"/>
<path opacity="0.4" d="M5.3665 6.47496C5.42483 6.46663 5.48317 6.46663 5.5415 6.47496C6.83317 6.4333 7.85817 5.37496 7.85817 4.07496C7.85817 2.74996 6.78317 1.66663 5.44984 1.66663C4.12484 1.66663 3.0415 2.74163 3.0415 4.07496C3.04984 5.37496 4.07483 6.4333 5.3665 6.47496Z" fill="#0071CE"/>
<path opacity="0.4" d="M5.45843 10.7083C5.45843 11.5167 5.63343 12.2833 5.9501 12.975C4.7751 13.1 3.5501 12.85 2.6501 12.2583C1.33343 11.3833 1.33343 9.95833 2.6501 9.08333C3.54176 8.48333 4.8001 8.24167 5.98343 8.37501C5.64176 9.07501 5.45843 9.86668 5.45843 10.7083Z" fill="#0071CE"/>
<path d="M10.1 13.225C10.0333 13.2167 9.95833 13.2167 9.88333 13.225C8.35 13.175 7.125 11.9167 7.125 10.3667C7.125 8.78334 8.4 7.5 9.99167 7.5C11.575 7.5 12.8583 8.78334 12.8583 10.3667C12.8583 11.9167 11.6417 13.175 10.1 13.225Z" fill="#0071CE"/>
<path d="M7.3915 14.95C6.13317 15.7916 6.13317 17.1749 7.3915 18.0083C8.82484 18.9666 11.1748 18.9666 12.6082 18.0083C13.8665 17.1666 13.8665 15.7833 12.6082 14.95C11.1832 13.9916 8.83317 13.9916 7.3915 14.95Z" fill="#0071CE"/>
</svg>
