<svg width="20" height="20" viewBox="0 0 20 20" fill="none" xmlns="http://www.w3.org/2000/svg">
<path opacity="0.3" d="M15.3164 10.7V14.8083C15.3164 15.8666 14.4914 17 13.4998 17.3333L10.8414 18.2166C10.3748 18.375 9.61644 18.375 9.15811 18.2166L6.49977 17.3333C5.49977 17 4.68311 15.8666 4.68311 14.8083L4.69144 10.7L8.37477 13.1C9.27477 13.6916 10.7581 13.6916 11.6581 13.1L15.3164 10.7Z" fill="#0071CE"/>
<path d="M16.6498 5.3833L11.6581 2.1083C10.7581 1.51663 9.27477 1.51663 8.37477 2.1083L3.35811 5.3833C1.74977 6.42497 1.74977 8.7833 3.35811 9.8333L4.69144 10.7L8.37477 13.1C9.27477 13.6916 10.7581 13.6916 11.6581 13.1L15.3164 10.7L16.4581 9.94997V12.5C16.4581 12.8416 16.7414 13.125 17.0831 13.125C17.4248 13.125 17.7081 12.8416 17.7081 12.5V8.39997C18.0414 7.32497 17.6998 6.07497 16.6498 5.3833Z" fill="#0071CE"/>
</svg>
