<svg width="140" height="36" viewBox="0 0 140 36" fill="none" xmlns="http://www.w3.org/2000/svg">
<path d="M49.0544 30.814L47.4639 33.9146C47.3244 34.189 47.1569 34.3955 46.9617 34.5347C46.7698 34.6699 46.5605 34.7377 46.3339 34.7377C46.1525 34.7377 45.9729 34.6974 45.795 34.617L45.9624 34.0573C46.1054 34.1047 46.224 34.1286 46.3182 34.1286C46.5379 34.1286 46.7194 34.0096 46.8623 33.7719L46.9198 33.6786L45.4602 30.814H46.1874L47.2704 33.0695L48.3847 30.814H49.0544Z" fill="#0F316C"/>
<path d="M52.7815 30.814V34.6554H52.1013V33.0091H50.2075V34.6554H49.5273V30.814H50.2075V32.3999H52.1013V30.814H52.7815Z" fill="#0F316C"/>
<path d="M53.814 30.814H54.4836V33.5414L56.4507 30.814H57.0838V34.6554H56.4141V31.9335L54.447 34.6554H53.814V30.814Z" fill="#0F316C"/>
<path d="M60.5225 32.6579C60.7561 32.7237 60.934 32.837 61.0562 32.9981C61.1782 33.1553 61.2393 33.3528 61.2393 33.5908C61.2393 33.9273 61.1206 34.189 60.8835 34.3756C60.6462 34.5621 60.3028 34.6554 59.8529 34.6554H58.116V30.814H59.7535C60.1649 30.814 60.4859 30.8998 60.7161 31.0719C60.9463 31.2438 61.0614 31.487 61.0614 31.8018C61.0614 32.0028 61.0143 32.1767 60.9202 32.3231C60.8293 32.4693 60.6969 32.581 60.5225 32.6579ZM58.7856 32.4548H59.6959C59.9157 32.4548 60.0831 32.4089 60.1982 32.3176C60.3133 32.2261 60.3708 32.0906 60.3708 31.9115C60.3708 31.7322 60.3133 31.5967 60.1982 31.5054C60.0831 31.4102 59.9157 31.3627 59.6959 31.3627H58.7856V32.4548ZM59.832 34.1066C60.3133 34.1066 60.5539 33.9163 60.5539 33.5359C60.5539 33.1627 60.3133 32.9762 59.832 32.9762H58.7856V34.1066H59.832Z" fill="#0F316C"/>
<path d="M64.7606 34.0573V34.6554H62.0139V30.814H64.6873V31.4121H62.694V32.4109H64.4623V32.9981H62.694V34.0573H64.7606Z" fill="#0F316C"/>
<path d="M67.0255 30.814C67.343 30.814 67.6184 30.8688 67.8521 30.9786C68.0892 31.0884 68.2707 31.2455 68.3962 31.4505C68.5218 31.6554 68.5846 31.8986 68.5846 32.1804C68.5846 32.4583 68.5218 32.7018 68.3962 32.9103C68.2707 33.1151 68.0892 33.2725 67.8521 33.3823C67.6184 33.492 67.343 33.5469 67.0255 33.5469H66.1989V34.6554H65.5188V30.814H67.0255ZM66.9941 32.9432C67.2907 32.9432 67.5156 32.8774 67.669 32.7457C67.8224 32.614 67.8992 32.4254 67.8992 32.1804C67.8992 31.9352 67.8224 31.7469 67.669 31.6152C67.5156 31.4835 67.2907 31.4176 66.9941 31.4176H66.1989V32.9432H66.9941Z" fill="#0F316C"/>
<path d="M70.9637 34.7104C70.594 34.7104 70.2591 34.6261 69.9592 34.4579C69.6627 34.2858 69.429 34.0499 69.2582 33.75C69.0908 33.4499 69.0071 33.1114 69.0071 32.7348C69.0071 32.3579 69.0925 32.0194 69.2634 31.7195C69.4342 31.4194 69.6679 31.1852 69.9645 31.0171C70.2644 30.845 70.5992 30.7592 70.969 30.7592C71.2688 30.7592 71.5426 30.814 71.7903 30.9238C72.0379 31.0335 72.2472 31.1927 72.4181 31.4012L71.9787 31.8348C71.7135 31.5347 71.3875 31.3848 71.0004 31.3848C70.7492 31.3848 70.5243 31.4432 70.3255 31.5604C70.1267 31.6736 69.9714 31.8328 69.8598 32.0378C69.7481 32.2426 69.6924 32.4749 69.6924 32.7348C69.6924 32.9944 69.7481 33.2267 69.8598 33.4317C69.9714 33.6365 70.1267 33.7974 70.3255 33.9146C70.5243 34.0279 70.7492 34.0848 71.0004 34.0848C71.3875 34.0848 71.7135 33.9329 71.9787 33.6293L72.4181 34.0683C72.2472 34.2768 72.0362 34.436 71.7851 34.5457C71.5373 34.6555 71.2636 34.7104 70.9637 34.7104Z" fill="#0F316C"/>
<path d="M73.0547 30.814H73.7243V33.5414L75.6915 30.814H76.3245V34.6554H75.6548V31.9335L73.6877 34.6554H73.0547V30.814Z" fill="#0F316C"/>
<path d="M80.009 31.4176H78.7953V34.6554H78.1204V31.4176H76.9119V30.814H80.009V31.4176Z" fill="#0F316C"/>
<path d="M83.3423 34.0573V34.6554H80.5957V30.814H83.2691V31.4121H81.2758V32.4109H83.0441V32.9981H81.2758V34.0573H83.3423Z" fill="#0F316C"/>
<path d="M86.758 31.4176H85.5443V34.6554H84.8694V31.4176H83.6609V30.814H86.758V31.4176Z" fill="#0F316C"/>
<path d="M89.5882 33.7664H87.7571L87.3961 34.6554H86.6951L88.3431 30.814H89.0127L90.6659 34.6554H89.9544L89.5882 33.7664ZM89.3632 33.2066L88.6726 31.5274L87.9873 33.2066H89.3632Z" fill="#0F316C"/>
<path d="M92.6787 30.814H93.3484V33.5414L95.3155 30.814H95.9485V34.6554H95.2789V31.9335L93.3117 34.6554H92.6787V30.814Z" fill="#0F316C"/>
<path d="M100.229 30.814V34.6554H99.5493V33.0091H97.6555V34.6554H96.9753V30.814H97.6555V32.3999H99.5493V30.814H100.229Z" fill="#0F316C"/>
<path d="M104.511 30.814V34.6554H103.831V33.0091H101.937V34.6554H101.257V30.814H101.937V32.3999H103.831V30.814H104.511Z" fill="#0F316C"/>
<path d="M107.233 34.7104C106.86 34.7104 106.523 34.6261 106.223 34.4579C105.923 34.2858 105.688 34.0499 105.517 33.75C105.346 33.4462 105.261 33.1079 105.261 32.7348C105.261 32.3616 105.346 32.0249 105.517 31.725C105.688 31.4212 105.923 31.1852 106.223 31.0171C106.523 30.845 106.86 30.7592 107.233 30.7592C107.606 30.7592 107.943 30.845 108.243 31.0171C108.543 31.1852 108.778 31.4194 108.949 31.7195C109.12 32.0194 109.205 32.3579 109.205 32.7348C109.205 33.1114 109.12 33.4499 108.949 33.75C108.778 34.0499 108.543 34.2858 108.243 34.4579C107.943 34.6261 107.606 34.7104 107.233 34.7104ZM107.233 34.0848C107.477 34.0848 107.697 34.0279 107.892 33.9146C108.088 33.7974 108.241 33.6365 108.353 33.4317C108.464 33.2232 108.52 32.9907 108.52 32.7348C108.52 32.4786 108.464 32.2481 108.353 32.0433C108.241 31.8348 108.088 31.6736 107.892 31.5604C107.697 31.4432 107.477 31.3848 107.233 31.3848C106.989 31.3848 106.769 31.4432 106.574 31.5604C106.379 31.6736 106.225 31.8348 106.114 32.0433C106.002 32.2481 105.946 32.4786 105.946 32.7348C105.946 32.9907 106.002 33.2232 106.114 33.4317C106.225 33.6365 106.379 33.7974 106.574 33.9146C106.769 34.0279 106.989 34.0848 107.233 34.0848Z" fill="#0F316C"/>
<path d="M113.201 30.814V34.6554H112.532V31.4176H110.633V34.6554H109.963V30.814H113.201Z" fill="#0F316C"/>
<path d="M115.929 34.7104C115.556 34.7104 115.219 34.6261 114.919 34.4579C114.619 34.2858 114.384 34.0499 114.213 33.75C114.042 33.4462 113.957 33.1079 113.957 32.7348C113.957 32.3616 114.042 32.0249 114.213 31.725C114.384 31.4212 114.619 31.1852 114.919 31.0171C115.219 30.845 115.556 30.7592 115.929 30.7592C116.302 30.7592 116.639 30.845 116.939 31.0171C117.238 31.1852 117.474 31.4194 117.645 31.7195C117.816 32.0194 117.901 32.3579 117.901 32.7348C117.901 33.1114 117.816 33.4499 117.645 33.75C117.474 34.0499 117.238 34.2858 116.939 34.4579C116.639 34.6261 116.302 34.7104 115.929 34.7104ZM115.929 34.0848C116.173 34.0848 116.393 34.0279 116.588 33.9146C116.783 33.7974 116.937 33.6365 117.048 33.4317C117.16 33.2232 117.216 32.9907 117.216 32.7348C117.216 32.4786 117.16 32.2481 117.048 32.0433C116.937 31.8348 116.783 31.6736 116.588 31.5604C116.393 31.4432 116.173 31.3848 115.929 31.3848C115.685 31.3848 115.465 31.4432 115.27 31.5604C115.074 31.6736 114.921 31.8348 114.809 32.0433C114.698 32.2481 114.642 32.4786 114.642 32.7348C114.642 32.9907 114.698 33.2232 114.809 33.4317C114.921 33.6365 115.074 33.7974 115.27 33.9146C115.465 34.0279 115.685 34.0848 115.929 34.0848Z" fill="#0F316C"/>
<path d="M121.68 30.814V34.6554H121.01V31.4176H119.566L119.535 32.378C119.517 32.9158 119.475 33.3528 119.409 33.6896C119.343 34.0224 119.236 34.2768 119.09 34.4524C118.943 34.6243 118.741 34.7103 118.483 34.7103C118.392 34.7103 118.269 34.6919 118.112 34.6554L118.159 34.0353C118.204 34.0498 118.256 34.0573 118.316 34.0573C118.528 34.0573 118.678 33.9256 118.766 33.6621C118.856 33.395 118.912 32.9762 118.933 32.4054L118.985 30.814H121.68Z" fill="#0F316C"/>
<path d="M122.715 30.814H123.385V33.5414L125.352 30.814H125.985V34.6554H125.315V31.9335L123.348 34.6554H122.715V30.814Z" fill="#0F316C"/>
<path d="M128.696 34.7104C128.326 34.7104 127.992 34.6261 127.692 34.4579C127.395 34.2858 127.161 34.0499 126.991 33.75C126.823 33.4499 126.74 33.1114 126.74 32.7348C126.74 32.3579 126.825 32.0194 126.996 31.7195C127.167 31.4194 127.4 31.1852 127.697 31.0171C127.997 30.845 128.332 30.7592 128.701 30.7592C129.001 30.7592 129.275 30.814 129.523 30.9238C129.77 31.0335 129.98 31.1927 130.151 31.4012L129.711 31.8348C129.446 31.5347 129.12 31.3848 128.733 31.3848C128.482 31.3848 128.257 31.4432 128.058 31.5604C127.859 31.6736 127.704 31.8328 127.592 32.0378C127.481 32.2426 127.425 32.4749 127.425 32.7348C127.425 32.9944 127.481 33.2267 127.592 33.4317C127.704 33.6365 127.859 33.7974 128.058 33.9146C128.257 34.0279 128.482 34.0848 128.733 34.0848C129.12 34.0848 129.446 33.9329 129.711 33.6293L130.151 34.0683C129.98 34.2768 129.769 34.436 129.518 34.5457C129.27 34.6555 128.996 34.7104 128.696 34.7104Z" fill="#0F316C"/>
<path d="M9.53285 13.0002H0V36.0001H9.53285V13.0002Z" fill="#0F316C"/>
<path d="M24.7849 0V25.9984H21.9242V0H12.3914V35.9978H14.4199H21.9242H24.7849H31.2366H34.3178V0H24.7849Z" fill="#0F316C"/>
<path d="M9.53285 0H0V9.99953H9.53285V0Z" fill="#0F316C"/>
<path d="M49.62 6.97616V7.8136H45.7747V2.43555H49.5174V3.27299H46.7268V4.67128H49.2025V5.49335H46.7268V6.97616H49.62Z" fill="#12152A"/>
<path d="M55.7643 6.96847V8.95835H54.8853V7.8136H50.9522V8.95835H50.0659L50.0732 6.96847H50.293C50.6152 6.95311 50.84 6.70469 50.9668 6.22323C51.0987 5.73664 51.1792 5.04263 51.2085 4.14116L51.2671 2.43555H55.0245V6.96847H55.7643ZM52.0435 4.23335C52.0192 4.92993 51.9654 5.51129 51.8824 5.97738C51.7995 6.43835 51.6677 6.76872 51.4868 6.96847H54.087V3.28067H52.0801L52.0435 4.23335Z" fill="#12152A"/>
<path d="M56.6685 2.43555H57.606V6.25396L60.3599 2.43555H61.2462V7.8136H60.3087V4.00286L57.5547 7.8136H56.6685V2.43555Z" fill="#12152A"/>
<path d="M67.2394 2.43555V7.8136H66.2872V5.50872H63.6358V7.8136H62.6836V2.43555H63.6358V4.65591H66.2872V2.43555H67.2394Z" fill="#12152A"/>
<path d="M72.0762 6.56896H69.5127L69.0073 7.8136H68.0259L70.3328 2.43555H71.2706L73.5851 7.8136H72.5887L72.0762 6.56896ZM71.7613 5.7853L70.7945 3.43433L69.835 5.7853H71.7613Z" fill="#12152A"/>
<path d="M78.0321 2.43555V7.8136H77.0946V6.31542H75.8274H75.7249L74.7727 7.8136H73.7693L74.8679 6.15408C74.5116 6.01579 74.2355 5.7981 74.0403 5.50103C73.8499 5.19883 73.7546 4.83519 73.7546 4.41006C73.7546 4.0003 73.8425 3.64688 74.0183 3.34982C74.1941 3.05275 74.4431 2.82738 74.7654 2.67372C75.0877 2.51494 75.466 2.43555 75.9007 2.43555H78.0321ZM75.93 3.28067C75.5393 3.28067 75.239 3.37543 75.0291 3.56494C74.824 3.75444 74.7215 4.03103 74.7215 4.39469C74.7215 4.74811 74.8215 5.02212 75.0218 5.21677C75.222 5.40627 75.5125 5.50103 75.8934 5.50103H77.0946V3.28067H75.93Z" fill="#12152A"/>
<path d="M48.1478 17.11C47.6252 17.11 47.1542 16.9921 46.7342 16.7565C46.3142 16.5158 45.9846 16.1854 45.7454 15.7654C45.5062 15.3403 45.3865 14.8665 45.3865 14.3441C45.3865 13.8217 45.5062 13.3504 45.7454 12.9304C45.9846 12.5053 46.3142 12.1749 46.7342 11.9393C47.1542 11.6986 47.6252 11.5782 48.1478 11.5782C48.6703 11.5782 49.1414 11.6986 49.5614 11.9393C49.9814 12.1749 50.311 12.5028 50.5502 12.9228C50.7893 13.3428 50.909 13.8165 50.909 14.3441C50.909 14.8717 50.7893 15.3454 50.5502 15.7654C50.311 16.1854 49.9814 16.5158 49.5614 16.7565C49.1414 16.9921 48.6703 17.11 48.1478 17.11ZM48.1478 16.2341C48.4895 16.2341 48.7971 16.1547 49.0706 15.9959C49.3441 15.832 49.5589 15.6067 49.7152 15.3198C49.8715 15.0279 49.9496 14.7026 49.9496 14.3441C49.9496 13.9856 49.8715 13.6629 49.7152 13.3761C49.5589 13.0841 49.3441 12.8587 49.0706 12.7C48.7971 12.5361 48.4895 12.4541 48.1478 12.4541C47.806 12.4541 47.4984 12.5361 47.2249 12.7C46.9514 12.8587 46.7367 13.0841 46.5803 13.3761C46.424 13.6629 46.346 13.9856 46.346 14.3441C46.346 14.7026 46.424 15.0279 46.5803 15.3198C46.7367 15.6067 46.9514 15.832 47.2249 15.9959C47.4984 16.1547 47.806 16.2341 48.1478 16.2341Z" fill="#12152A"/>
<path d="M51.969 11.655H55.9608V12.4771H52.9065V13.7986H54.4227C55.0379 13.7986 55.5041 13.9343 55.8216 14.2058C56.1439 14.4721 56.305 14.8588 56.305 15.3659C56.305 15.8986 56.1292 16.3109 55.7777 16.6028C55.4261 16.8897 54.9255 17.0331 54.2762 17.0331H51.969V11.655ZM54.2249 16.2648C54.5911 16.2648 54.8694 16.1905 55.0599 16.042C55.2503 15.8934 55.3455 15.6783 55.3455 15.3966C55.3455 14.8434 54.972 14.5669 54.2249 14.5669H52.9065V16.2648H54.2249Z" fill="#12152A"/>
<path d="M59.4571 11.655C59.9013 11.655 60.2872 11.7319 60.6143 11.8855C60.9464 12.0392 61.2003 12.2594 61.3761 12.5462C61.5518 12.8331 61.6397 13.1737 61.6397 13.5681C61.6397 13.9574 61.5518 14.298 61.3761 14.5899C61.2003 14.8767 60.9464 15.097 60.6143 15.2506C60.2872 15.4043 59.9013 15.4811 59.4571 15.4811H58.2998V17.0331H57.3477V11.655H59.4571ZM59.4131 14.636C59.8281 14.636 60.143 14.5438 60.358 14.3594C60.5729 14.175 60.6802 13.9113 60.6802 13.5681C60.6802 13.2249 60.5729 12.9611 60.358 12.7767C60.143 12.5923 59.8281 12.5002 59.4131 12.5002H58.2998V14.636H59.4131Z" fill="#12152A"/>
<path d="M65.6815 15.7884H63.118L62.6126 17.0331H61.6311L63.9383 11.655H64.8758L67.1903 17.0331H66.1942L65.6815 15.7884ZM65.3665 15.0048L64.3997 12.6538L63.4402 15.0048H65.3665Z" fill="#12152A"/>
<path d="M70.6719 14.2288C70.9796 14.3313 71.2188 14.4977 71.3897 14.7282C71.5655 14.9536 71.6534 15.2199 71.6534 15.5272C71.6534 15.8499 71.5534 16.1316 71.3531 16.3724C71.1528 16.608 70.8843 16.7898 70.5474 16.9179C70.2153 17.0459 69.8516 17.1099 69.4561 17.1099C69.1144 17.1099 68.7701 17.0613 68.4234 16.964C68.0816 16.8615 67.7642 16.7104 67.4712 16.5107L67.7788 15.7808C68.0034 15.9396 68.2524 16.0625 68.5259 16.1496C68.7994 16.2315 69.0704 16.2725 69.3389 16.2725C69.7246 16.2725 70.0446 16.1931 70.2984 16.0343C70.5573 15.8755 70.6866 15.6579 70.6866 15.3813C70.6866 15.1457 70.5939 14.9664 70.4083 14.8435C70.2226 14.7205 69.9663 14.6591 69.6392 14.6591H68.4453V13.8754H69.566C69.8491 13.8754 70.0713 13.814 70.2325 13.691C70.3936 13.5681 70.4742 13.4016 70.4742 13.1916C70.4742 12.9407 70.3643 12.746 70.1446 12.6077C69.9297 12.4694 69.6539 12.4003 69.3169 12.4003C69.0874 12.4003 68.8507 12.4362 68.6065 12.5079C68.3623 12.5745 68.1329 12.6743 67.918 12.8075L67.6177 12.0008C67.8814 11.8523 68.1597 11.7421 68.4527 11.6704C68.7504 11.5936 69.0459 11.5552 69.3389 11.5552C69.7198 11.5552 70.0688 11.6166 70.3863 11.7396C70.7086 11.8625 70.9649 12.0392 71.1553 12.2697C71.3458 12.4951 71.441 12.7614 71.441 13.0687C71.441 13.3351 71.3726 13.5681 71.2359 13.7679C71.0993 13.9676 70.9111 14.1213 70.6719 14.2288Z" fill="#12152A"/>
<path d="M75.106 17.11C74.5837 17.11 74.1124 16.9921 73.6924 16.7565C73.2726 16.5158 72.943 16.1854 72.7036 15.7654C72.4644 15.3403 72.3447 14.8665 72.3447 14.3441C72.3447 13.8217 72.4644 13.3504 72.7036 12.9304C72.943 12.5053 73.2726 12.1749 73.6924 11.9393C74.1124 11.6986 74.5837 11.5782 75.106 11.5782C75.6286 11.5782 76.0998 11.6986 76.5196 11.9393C76.9396 12.1749 77.2692 12.5028 77.5084 12.9228C77.7478 13.3428 77.8673 13.8165 77.8673 14.3441C77.8673 14.8717 77.7478 15.3454 77.5084 15.7654C77.2692 16.1854 76.9396 16.5158 76.5196 16.7565C76.0998 16.9921 75.6286 17.11 75.106 17.11ZM75.106 16.2341C75.448 16.2341 75.7556 16.1547 76.0289 15.9959C76.3024 15.832 76.5173 15.6067 76.6734 15.3198C76.8298 15.0279 76.9078 14.7026 76.9078 14.3441C76.9078 13.9856 76.8298 13.6629 76.6734 13.3761C76.5173 13.0841 76.3024 12.8587 76.0289 12.7C75.7556 12.5361 75.448 12.4541 75.106 12.4541C74.7643 12.4541 74.4567 12.5361 74.1831 12.7C73.9098 12.8587 73.6949 13.0841 73.5386 13.3761C73.3825 13.6629 73.3042 13.9856 73.3042 14.3441C73.3042 14.7026 73.3825 15.0279 73.5386 15.3198C73.6949 15.6067 73.9098 15.832 74.1831 15.9959C74.4567 16.1547 74.7643 16.2341 75.106 16.2341Z" fill="#12152A"/>
<path d="M82.2967 14.2365C82.6238 14.3287 82.8728 14.4875 83.0438 14.7128C83.2145 14.9331 83.3001 15.2097 83.3001 15.5426C83.3001 16.0138 83.134 16.38 82.8021 16.6412C82.47 16.9025 81.9891 17.0331 81.3592 17.0331H78.9275V11.655H81.22C81.7961 11.655 82.2454 11.7754 82.5677 12.0161C82.89 12.2569 83.0511 12.5975 83.0511 13.038C83.0511 13.3197 82.9852 13.563 82.8533 13.7678C82.7263 13.9727 82.5407 14.1289 82.2967 14.2365ZM79.865 13.9522H81.1394C81.4471 13.9522 81.6814 13.8882 81.8426 13.7602C82.0037 13.6321 82.0843 13.4426 82.0843 13.1916C82.0843 12.9406 82.0037 12.7511 81.8426 12.6231C81.6814 12.4899 81.4471 12.4233 81.1394 12.4233H79.865V13.9522ZM81.3299 16.2648C82.0037 16.2648 82.3406 15.9985 82.3406 15.4658C82.3406 14.9433 82.0037 14.6821 81.3299 14.6821H79.865V16.2648H81.3299Z" fill="#12152A"/>
<path d="M87.7833 15.7884H85.2198L84.7144 17.0331H83.7329L86.0401 11.655H86.9776L89.2921 17.0331H88.296L87.7833 15.7884ZM87.4683 15.0048L86.5015 12.6538L85.542 15.0048H87.4683Z" fill="#12152A"/>
<path d="M93.5418 12.5002H91.8426V17.0331H90.8977V12.5002H89.2058V11.655H93.5418V12.5002Z" fill="#12152A"/>
<path d="M98.2083 16.1956V17.0331H94.363V11.655H98.1058V12.4925H95.3152V13.8908H97.7908V14.7128H95.3152V16.1956H98.2083Z" fill="#12152A"/>
<path d="M103.65 11.655V17.0331H102.712V12.5002H100.69L100.647 13.8447C100.622 14.5976 100.563 15.2097 100.471 15.6809C100.378 16.147 100.229 16.503 100.024 16.7488C99.8189 16.9896 99.5357 17.1099 99.1743 17.1099C99.0473 17.1099 98.874 17.0843 98.6543 17.0331L98.7202 16.1649C98.7836 16.1854 98.8569 16.1956 98.9399 16.1956C99.2377 16.1956 99.4478 16.0112 99.5698 15.6425C99.6969 15.2686 99.7749 14.6821 99.8042 13.8831L99.8775 11.655H103.65Z" fill="#12152A"/>
<path d="M107.458 13.4759C108.073 13.4759 108.544 13.6219 108.871 13.9138C109.203 14.2006 109.369 14.6283 109.369 15.1969C109.369 15.791 109.189 16.2469 108.827 16.5644C108.466 16.8769 107.958 17.0331 107.304 17.0331H105.099V11.655H106.037V13.4759H107.458ZM107.26 16.2648C107.631 16.2648 107.917 16.1752 108.117 15.9959C108.317 15.8166 108.417 15.5554 108.417 15.2122C108.417 14.5617 108.031 14.2365 107.26 14.2365H106.037V16.2648H107.26Z" fill="#12152A"/>
<path d="M114.898 11.655V17.0331H113.946V14.7282H111.294V17.0331H110.342V11.655H111.294V13.8754H113.946V11.655H114.898Z" fill="#12152A"/>
<path d="M119.734 15.7884H117.171L116.666 17.0331H115.684L117.991 11.655H118.929L121.243 17.0331H120.247L119.734 15.7884ZM119.42 15.0048L118.453 12.6538L117.493 15.0048H119.42Z" fill="#12152A"/>
<path d="M125.691 11.655V17.0331H124.753V15.5349H123.486H123.383L122.431 17.0331H121.428L122.526 15.3736C122.17 15.2353 121.894 15.0176 121.699 14.7205C121.508 14.4183 121.413 14.0547 121.413 13.6295C121.413 13.2198 121.501 12.8664 121.677 12.5693C121.853 12.2722 122.102 12.0469 122.424 11.8932C122.746 11.7344 123.125 11.655 123.559 11.655H125.691ZM123.588 12.5002C123.198 12.5002 122.898 12.5949 122.688 12.7844C122.482 12.9739 122.38 13.2505 122.38 13.6142C122.38 13.9676 122.48 14.2416 122.68 14.4362C122.88 14.6258 123.171 14.7205 123.552 14.7205H124.753V12.5002H123.588Z" fill="#12152A"/>
<path d="M50.3158 20.8745V26.2525H49.3782V21.7196H46.7195V26.2525H45.782V20.8745H50.3158Z" fill="#12152A"/>
<path d="M56.0912 20.8745V26.2525H55.1536V21.7196H53.1321L53.0882 23.0641C53.0639 23.817 53.0053 24.4292 52.9124 24.9003C52.8197 25.3666 52.6707 25.7224 52.4656 25.9682C52.2605 26.2091 51.9774 26.3293 51.616 26.3293C51.4892 26.3293 51.3157 26.3039 51.0959 26.2525L51.1619 25.3843C51.2255 25.405 51.2987 25.4151 51.3816 25.4151C51.6796 25.4151 51.8895 25.2307 52.0115 24.8619C52.1385 24.4881 52.2166 23.9015 52.2459 23.1025L52.3191 20.8745H56.0912Z" fill="#12152A"/>
<path d="M60.9322 25.0079H58.3687L57.8633 26.2525H56.8818L59.189 20.8745H60.1265L62.441 26.2525H61.4449L60.9322 25.0079ZM60.6173 24.2242L59.6504 21.8733L58.691 24.2242H60.6173Z" fill="#12152A"/>
<path d="M66.6905 21.7196H64.9913V26.2525H64.0464V21.7196H62.3545V20.8745H66.6905V21.7196Z" fill="#12152A"/>
<path d="M73.2994 23.5558C73.2994 24.2627 73.0651 24.8211 72.5963 25.2307C72.1275 25.6406 71.461 25.8634 70.5967 25.8991V26.4677H69.7178V25.8991C68.8536 25.853 68.1847 25.6278 67.711 25.223C67.2422 24.8185 67.0078 24.2627 67.0078 23.5558C67.0078 22.849 67.2422 22.2934 67.711 21.8887C68.1847 21.479 68.8536 21.251 69.7178 21.2049V20.6594H70.5967V21.2049C71.461 21.251 72.1275 21.479 72.5963 21.8887C73.0651 22.2934 73.2994 22.849 73.2994 23.5558ZM70.5967 25.1155C71.1827 25.0694 71.6272 24.9157 71.9298 24.6545C72.2326 24.3882 72.3839 24.0195 72.3839 23.5482C72.3839 23.0771 72.2301 22.7107 71.9225 22.4495C71.6199 22.1883 71.1779 22.0373 70.5967 21.9962V25.1155ZM67.938 23.5558C67.938 24.0221 68.0895 24.3856 68.3921 24.6468C68.6997 24.908 69.1417 25.0643 69.7178 25.1155V21.9962C68.5313 22.0884 67.938 22.6084 67.938 23.5558Z" fill="#12152A"/>
<path d="M76.6727 26.3294C76.1501 26.3294 75.6789 26.2117 75.2591 25.976C74.8391 25.7354 74.5095 25.405 74.2703 24.9849C74.0309 24.5599 73.9114 24.086 73.9114 23.5635C73.9114 23.0411 74.0309 22.57 74.2703 22.1499C74.5095 21.7248 74.8391 21.3944 75.2591 21.1588C75.6789 20.9181 76.1501 20.7977 76.6727 20.7977C77.195 20.7977 77.6663 20.9181 78.0863 21.1588C78.5061 21.3944 78.8356 21.7222 79.0751 22.1422C79.3142 22.5623 79.4339 23.0361 79.4339 23.5635C79.4339 24.0912 79.3142 24.565 79.0751 24.9849C78.8356 25.405 78.5061 25.7354 78.0863 25.976C77.6663 26.2117 77.195 26.3294 76.6727 26.3294ZM76.6727 25.4535C77.0144 25.4535 77.322 25.3743 77.5955 25.2154C77.8688 25.0516 78.0838 24.8262 78.2401 24.5393C78.3962 24.2473 78.4745 23.9222 78.4745 23.5635C78.4745 23.2051 78.3962 22.8824 78.2401 22.5955C78.0838 22.3035 77.8688 22.0783 77.5955 21.9194C77.322 21.7555 77.0144 21.6736 76.6727 21.6736C76.3307 21.6736 76.0231 21.7555 75.7498 21.9194C75.4763 22.0783 75.2614 22.3035 75.1052 22.5955C74.9489 22.8824 74.8709 23.2051 74.8709 23.5635C74.8709 23.9222 74.9489 24.2473 75.1052 24.5393C75.2614 24.8262 75.4763 25.0516 75.7498 25.2154C76.0231 25.3743 76.3307 25.4535 76.6727 25.4535Z" fill="#12152A"/>
<path d="M82.596 20.8745C83.0403 20.8745 83.4262 20.9513 83.7532 21.105C84.0854 21.2587 84.3392 21.4789 84.515 21.7657C84.6908 22.0526 84.7787 22.3933 84.7787 22.7875C84.7787 23.1769 84.6908 23.5174 84.515 23.8093C84.3392 24.0962 84.0854 24.3164 83.7532 24.4701C83.4262 24.6237 83.0403 24.7006 82.596 24.7006H81.4387V26.2525H80.4866V20.8745H82.596ZM82.552 23.8554C82.9672 23.8554 83.2822 23.7632 83.4969 23.5789C83.7118 23.3945 83.8192 23.1308 83.8192 22.7875C83.8192 22.4444 83.7118 22.1806 83.4969 21.9962C83.2822 21.8118 82.9672 21.7196 82.552 21.7196H81.4387V23.8554H82.552Z" fill="#12152A"/>
<path d="M90.3893 26.2525L90.3819 22.6876L88.6973 25.6379H88.2725L86.5879 22.7337V26.2525H85.687V20.8745H86.4707L88.4996 24.4317L90.5064 20.8745H91.2828L91.2975 26.2525H90.3893Z" fill="#12152A"/>
<path d="M96.1307 25.0079H93.5672L93.0618 26.2525H92.0803L94.3875 20.8745H95.325L97.6395 26.2525H96.6434L96.1307 25.0079ZM95.8157 24.2242L94.8489 21.8733L93.8894 24.2242H95.8157Z" fill="#12152A"/>
</svg>
