<svg width="18" height="18" viewBox="0 0 18 18" fill="none"><path opacity="0.4" d="M0.667055 8.23242C0.708722 10.1808 0.650482 13.5133 0.667149 13.8808C0.726316 14.6666 1.20205 15.4608 1.67039 16.0208C2.32205 16.8066 3.12455 17.1574 4.24372 17.1574C5.79039 17.1658 7.49539 17.1658 9.15122 17.1658C10.8137 17.1658 12.4271 17.1658 13.7896 17.1574C14.8929 17.1574 15.7204 16.7974 16.3637 16.0208C16.8321 15.4608 17.2826 14.6583 17.3251 13.8808C17.3418 13.5716 17.2754 9.95409 17.3254 8.23242H0.667055Z" fill="#0071CE"></path><path d="M8.37109 11.8203V12.8986C8.37109 13.2436 8.65109 13.5236 8.99609 13.5236C9.34109 13.5236 9.62109 13.2436 9.62109 12.8986V11.8203C9.62109 11.4753 9.34109 11.1953 8.99609 11.1953C8.65109 11.1953 8.37109 11.4753 8.37109 11.8203Z" fill="#0071CE"></path><path fill-rule="evenodd" clip-rule="evenodd" d="M7.50949 11.1313C7.42616 11.4338 7.13532 11.6271 6.82032 11.5855C4.69449 11.2888 2.66283 10.5346 0.947825 9.40213C0.771992 9.28713 0.666992 9.09047 0.666992 8.88047V5.99213C0.666992 4.24213 2.09366 2.8188 3.84783 2.8188H5.48699C5.64366 1.6088 6.66866 0.667969 7.92033 0.667969H10.072C11.3228 0.667969 12.3487 1.6088 12.5053 2.8188H14.1528C15.902 2.8188 17.3253 4.24213 17.3253 5.99213V8.88047C17.3253 9.09047 17.2195 9.2863 17.0453 9.40213C15.327 10.5396 13.287 11.2971 11.147 11.593C11.1178 11.5971 11.0895 11.5988 11.0612 11.5988C10.7787 11.5988 10.5262 11.408 10.4553 11.128C10.287 10.4646 9.68449 10.0005 8.99199 10.0005C8.29032 10.0005 7.69449 10.4546 7.50949 11.1313ZM10.072 1.91797H7.92033C7.35949 1.91797 6.89116 2.3013 6.75116 2.8188H11.2403C11.1003 2.3013 10.632 1.91797 10.072 1.91797Z" fill="#0071CE"></path></svg>